<svg width="14" height="7" viewBox="0 0 14 7" fill="none" xmlns="http://www.w3.org/2000/svg">
<path d="M0.523788 0.652388C0.439626 0.389383 0.584607 0.107949 0.847612 0.023788C1.11062 -0.0603738 1.39205 0.0846076 1.47621 0.347612L0.523788 0.652388ZM12.5238 0.347612C12.6079 0.0846076 12.8894 -0.0603738 13.1524 0.023788C13.4154 0.107949 13.5604 0.389383 13.4762 0.652388L12.5238 0.347612ZM7.5 6.5C7.5 6.77614 7.27614 7 7 7C6.72386 7 6.5 6.77614 6.5 6.5H7.5ZM11.8904 5.43765C12.0629 5.65328 12.028 5.96793 11.8123 6.14043C11.5967 6.31294 11.2821 6.27798 11.1096 6.06235L11.8904 5.43765ZM9.60957 4.18735C9.43706 3.97172 9.47202 3.65707 9.68765 3.48457C9.90328 3.31206 10.2179 3.34702 10.3904 3.56265L9.60957 4.18735ZM2.89043 6.06235C2.71793 6.27798 2.40328 6.31294 2.18765 6.14043C1.97202 5.96793 1.93706 5.65328 2.10957 5.43765L2.89043 6.06235ZM3.60957 3.56265C3.78207 3.34702 4.09672 3.31206 4.31235 3.48457C4.52798 3.65707 4.56294 3.97172 4.39043 4.18735L3.60957 3.56265ZM1 0.5C1.47621 0.347612 1.47613 0.347356 1.47605 0.347114C1.47603 0.347053 1.47596 0.346824 1.47592 0.3467C1.47584 0.346452 1.47578 0.34626 1.47573 0.346123C1.47564 0.345849 1.47563 0.345797 1.47568 0.345961C1.47579 0.346291 1.47619 0.347491 1.47688 0.349533C1.47827 0.353617 1.48085 0.361062 1.48469 0.371645C1.49237 0.392821 1.50507 0.426497 1.52333 0.470891C1.5599 0.559762 1.61856 0.691048 1.70368 0.850643C1.87425 1.17048 2.14871 1.59959 2.56069 2.02873C3.3751 2.87707 4.74821 3.75 7 3.75V4.75C4.45179 4.75 2.8249 3.74793 1.83931 2.72127C1.35129 2.21291 1.02575 1.70452 0.821324 1.32123C0.718941 1.12926 0.646355 0.967582 0.598544 0.851375C0.574621 0.79323 0.556848 0.746339 0.544605 0.712583C0.538483 0.695701 0.533738 0.682089 0.530296 0.671982C0.528574 0.666929 0.527177 0.66275 0.526096 0.659475C0.525556 0.657837 0.525094 0.656425 0.524709 0.655243C0.524517 0.654652 0.524344 0.654118 0.524191 0.653642C0.524114 0.653404 0.524013 0.65309 0.523975 0.652971C0.523879 0.652673 0.523788 0.652388 1 0.5ZM7 3.75C9.25179 3.75 10.6249 2.87707 11.4393 2.02873C11.8513 1.59959 12.1257 1.17048 12.2963 0.850643C12.3814 0.691048 12.4401 0.559762 12.4767 0.470891C12.4949 0.426497 12.5076 0.392821 12.5153 0.371645C12.5191 0.361062 12.5217 0.353617 12.5231 0.349533C12.5238 0.347491 12.5242 0.346291 12.5243 0.345961C12.5244 0.345797 12.5244 0.345849 12.5243 0.346123C12.5242 0.34626 12.5242 0.346452 12.5241 0.3467C12.524 0.346824 12.524 0.347053 12.5239 0.347114C12.5239 0.347356 12.5238 0.347612 13 0.5C13.4762 0.652388 13.4761 0.652673 13.476 0.652971C13.476 0.65309 13.4759 0.653404 13.4758 0.653642C13.4757 0.654118 13.4755 0.654652 13.4753 0.655243C13.4749 0.656425 13.4744 0.657837 13.4739 0.659475C13.4728 0.66275 13.4714 0.666929 13.4697 0.671982C13.4663 0.682089 13.4615 0.695701 13.4554 0.712583C13.4432 0.746339 13.4254 0.79323 13.4015 0.851375C13.3536 0.967582 13.2811 1.12926 13.1787 1.32123C12.9743 1.70452 12.6487 2.21291 12.1607 2.72127C11.1751 3.74793 9.54821 4.75 7 4.75V3.75ZM6.5 6.5V4.25H7.5V6.5H6.5ZM11.1096 6.06235L9.60957 4.18735L10.3904 3.56265L11.8904 5.43765L11.1096 6.06235ZM2.10957 5.43765L3.60957 3.56265L4.39043 4.18735L2.89043 6.06235L2.10957 5.43765Z" fill="#2F82FF"/>
</svg>
