<svg width="83" height="84" viewBox="0 0 83 84" fill="none" xmlns="http://www.w3.org/2000/svg">
<path d="M20.6704 14.5C20.6704 8.01819 20.6704 4.77728 22.6841 2.76364C24.6977 0.75 27.9386 0.75 34.4204 0.75H48.1704C54.6522 0.75 57.8931 0.75 59.9068 2.76364C61.9204 4.77728 61.9204 8.01819 61.9204 14.5V69.5C61.9204 75.9818 61.9204 79.2227 59.9068 81.2364C57.8931 83.25 54.6522 83.25 48.1704 83.25H34.4204C27.9386 83.25 24.6977 83.25 22.6841 81.2364C20.6704 79.2227 20.6704 75.9818 20.6704 69.5V14.5Z" fill="#5A5A5A"/>
<path fill-rule="evenodd" clip-rule="evenodd" d="M23.8994 3.97897C22.3892 5.48921 22.3892 7.91989 22.3892 12.7812V71.2187C22.3892 76.0801 22.3892 78.5108 23.8994 80.021C25.4096 81.5312 27.8403 81.5312 32.7017 81.5312H49.8892C54.7505 81.5312 57.1812 81.5312 58.6914 80.021C60.2017 78.5108 60.2017 76.0801 60.2017 71.2187V12.7812C60.2017 7.91988 60.2017 5.48921 58.6914 3.97897C57.5892 2.87674 55.9966 2.57896 53.3267 2.49852V4.18749C53.3267 5.61135 52.1724 6.76562 50.7485 6.76562H31.8423C30.4184 6.76562 29.2642 5.61135 29.2642 4.18749V2.49852C26.5942 2.57896 25.0016 2.87673 23.8994 3.97897Z" fill="url(#paint0_radial_4087_4658)"/>
<path fill-rule="evenodd" clip-rule="evenodd" d="M23.0038 7.18069C22.8198 8.54952 22.8188 10.3384 22.8188 12.7812V71.2187C22.8188 73.6616 22.8198 75.4505 23.0038 76.8193C23.1862 78.1758 23.5413 79.0552 24.2032 79.7172C24.8652 80.3791 25.7446 80.7342 27.1011 80.9166C28.4699 81.1006 30.2588 81.1016 32.7017 81.1016H49.8892C52.332 81.1016 54.1209 81.1006 55.4897 80.9166C56.8462 80.7342 57.7256 80.3791 58.3876 79.7172C59.0496 79.0552 59.4047 78.1758 59.587 76.8193C59.7711 75.4505 59.772 73.6616 59.772 71.2187V12.7812C59.772 10.3384 59.7711 8.54952 59.587 7.18069C59.4047 5.82422 59.0496 4.94478 58.3876 4.28281C57.4724 3.36766 56.1503 3.04521 53.7563 2.94393V4.18749C53.7563 5.84866 52.4097 7.19531 50.7485 7.19531H31.8423C30.1811 7.19531 28.8345 5.84866 28.8345 4.18749V2.94393C26.4405 3.04521 25.1184 3.36766 24.2032 4.28281C23.5413 4.94478 23.1862 5.82422 23.0038 7.18069ZM28.8345 2.51381C26.421 2.61405 24.9412 2.93719 23.8994 3.97897C22.3892 5.48921 22.3892 7.91989 22.3892 12.7812V71.2187C22.3892 76.0801 22.3892 78.5108 23.8994 80.021C25.4096 81.5312 27.8403 81.5312 32.7017 81.5312H49.8892C54.7505 81.5312 57.1812 81.5312 58.6914 80.021C60.2017 78.5108 60.2017 76.0801 60.2017 71.2187V12.7812C60.2017 7.91988 60.2017 5.48921 58.6914 3.97897C57.6496 2.93719 56.1699 2.61405 53.7563 2.51381C53.6163 2.508 53.4731 2.50293 53.3267 2.49852V4.18749C53.3267 5.61135 52.1724 6.76562 50.7485 6.76562H31.8423C30.4184 6.76562 29.2642 5.61135 29.2642 4.18749V2.49852C29.1177 2.50293 28.9745 2.508 28.8345 2.51381Z" fill="#889BFF"/>
<g clip-path="url(#clip0_4087_4658)">
<path d="M27.5454 40.4891C27.5454 39.7059 27.9014 38.9652 28.513 38.4759L39.148 29.9679C40.4035 28.9636 42.1874 28.9636 43.4428 29.9679L54.0778 38.4759C54.6894 38.9652 55.0454 39.7059 55.0454 40.4891V52.3125C55.0454 54.211 53.5064 55.75 51.6079 55.75H30.9829C29.0844 55.75 27.5454 54.211 27.5454 52.3125V40.4891Z" fill="url(#paint1_radial_4087_4658)"/>
<path d="M30.1235 33.4062C30.1235 32.457 30.8134 31.6875 31.6645 31.6875H50.9263C51.7774 31.6875 52.4673 32.457 52.4673 33.4062V50.5938C52.4673 51.543 51.7774 52.3125 50.9263 52.3125H31.6645C30.8134 52.3125 30.1235 51.543 30.1235 50.5938V33.4062Z" fill="white"/>
<path d="M27.5454 40.113C27.5454 39.438 28.2879 39.0265 28.8603 39.3843L41.2954 47.1562L53.7306 39.3843C54.303 39.0265 55.0454 39.438 55.0454 40.113V52.3125C55.0454 54.211 53.5064 55.75 51.6079 55.75H30.9829C29.0844 55.75 27.5454 54.211 27.5454 52.3125V40.113Z" fill="url(#paint2_radial_4087_4658)"/>
<path opacity="0.6" d="M40.2641 46.2109C40.8752 45.7526 41.7155 45.7526 42.3266 46.2109L52.9829 54.2031C53.6436 54.6986 53.2931 55.75 52.4672 55.75H30.1235C29.2976 55.75 28.9472 54.6986 29.6079 54.2031L40.2641 46.2109Z" fill="#FFB950"/>
<ellipse cx="51.6079" cy="31.6875" rx="3.4375" ry="3.4375" fill="url(#paint3_radial_4087_4658)"/>
</g>
<defs>
<radialGradient id="paint0_radial_4087_4658" cx="0" cy="0" r="1" gradientUnits="userSpaceOnUse" gradientTransform="translate(41.2954 8.77682) rotate(90) scale(72.7544 68.9728)">
<stop stop-color="#ACB9FF"/>
<stop offset="1" stop-color="#7C91FF"/>
</radialGradient>
<radialGradient id="paint1_radial_4087_4658" cx="0" cy="0" r="1" gradientUnits="userSpaceOnUse" gradientTransform="translate(41.2954 29.625) rotate(90) scale(26.125)">
<stop stop-color="#FFCB9B"/>
<stop offset="1" stop-color="#FFAD61"/>
</radialGradient>
<radialGradient id="paint2_radial_4087_4658" cx="0" cy="0" r="1" gradientUnits="userSpaceOnUse" gradientTransform="translate(41.2954 38.5625) rotate(90) scale(22.2005 21.3125)">
<stop stop-color="#FFDF8C"/>
<stop offset="1" stop-color="#FFCE50"/>
</radialGradient>
<radialGradient id="paint3_radial_4087_4658" cx="0" cy="0" r="1" gradientUnits="userSpaceOnUse" gradientTransform="translate(52.4673 31.1146) rotate(102.095) scale(4.10146 4.10146)">
<stop stop-color="#FFBFBF"/>
<stop offset="1" stop-color="#FF7070"/>
</radialGradient>
<clipPath id="clip0_4087_4658">
<rect width="27.5" height="27.5" fill="white" transform="translate(27.5454 28.25)"/>
</clipPath>
</defs>
</svg>
