<svg width="375" height="105" viewBox="0 0 375 105" fill="none" xmlns="http://www.w3.org/2000/svg">
<g filter="url(#filter0_d_4238_2729)">
<path d="M188 60C200.333 60 211.508 55.0383 219.636 47.0021C223.177 43.6206 226.005 39.987 228.779 36.4235C236.931 25.9521 244.611 16.0859 268.5 15H343C354.201 15 359.802 15 364.08 17.1799C367.843 19.0973 370.903 22.1569 372.82 25.9202C375 30.1984 375 35.7989 375 47V73C375 84.201 375 89.8016 372.82 94.0798C370.903 97.843 367.843 100.903 364.08 102.82C359.802 105 354.201 105 343 105H32C20.799 105 15.1984 105 10.9202 102.82C7.15695 100.903 4.09734 97.843 2.17987 94.0798C0 89.8016 0 84.201 0 73V47C0 35.799 0 30.1984 2.17987 25.9202C4.09734 22.1569 7.15695 19.0973 10.9202 17.1799C15.1984 15 20.799 15 32 15H108C131.889 16.1026 139.569 26.1201 147.721 36.7521C150.076 39.8244 152.471 42.9482 155.308 45.9228C155.671 46.3066 156.041 46.684 156.417 47.0549C156.769 47.4043 157.128 47.7513 157.495 48.0954C157.497 48.0971 157.5 48.0958 157.5 48.0933C157.5 48.0909 157.502 48.0896 157.504 48.0912C165.522 55.4842 176.234 60 188 60Z" fill="white"/>
</g>
<defs>
<filter id="filter0_d_4238_2729" x="-12" y="0" width="399" height="114" filterUnits="userSpaceOnUse" color-interpolation-filters="sRGB">
<feFlood flood-opacity="0" result="BackgroundImageFix"/>
<feColorMatrix in="SourceAlpha" type="matrix" values="0 0 0 0 0 0 0 0 0 0 0 0 0 0 0 0 0 0 127 0" result="hardAlpha"/>
<feOffset dy="-3"/>
<feGaussianBlur stdDeviation="6"/>
<feComposite in2="hardAlpha" operator="out"/>
<feColorMatrix type="matrix" values="0 0 0 0 0.66 0 0 0 0 0.706047 0 0 0 0 0.825 0 0 0 0.2 0"/>
<feBlend mode="multiply" in2="BackgroundImageFix" result="effect1_dropShadow_4238_2729"/>
<feBlend mode="normal" in="SourceGraphic" in2="effect1_dropShadow_4238_2729" result="shape"/>
</filter>
</defs>
</svg>
