<svg width="31" height="30" viewBox="0 0 31 30" fill="none" xmlns="http://www.w3.org/2000/svg">
<path d="M7.22342 6.89366L7.95102 6.71176V6.71176L7.22342 6.89366ZM9.55317 16.2127L8.82556 16.3946L9.55317 16.2127ZM23 20.75C23.4142 20.75 23.75 20.4142 23.75 20C23.75 19.5858 23.4142 19.25 23 19.25V20.75ZM4.25 4.25C3.83579 4.25 3.5 4.58579 3.5 5C3.5 5.41421 3.83579 5.75 4.25 5.75V4.25ZM10.9134 19.4705L10.4519 20.0617H10.4519L10.9134 19.4705ZM6.54329 5.26474L7.00485 4.67359L7.00485 4.67359L6.54329 5.26474ZM8.00011 7.99998C7.5859 7.99998 7.25011 8.33577 7.25011 8.74998C7.25011 9.1642 7.5859 9.49998 8.00011 9.49998V7.99998ZM25.1118 10.3032L25.8394 10.4851L25.1118 10.3032ZM24.5719 12.4627L25.2995 12.6446L24.5719 12.4627ZM9.87511 15.5C9.4609 15.5 9.12511 15.8358 9.12511 16.25C9.12511 16.6642 9.4609 17 9.87511 17V15.5ZM23.2117 15.7205L22.7501 15.1293V15.1293L23.2117 15.7205ZM6.49581 7.07556L8.82556 16.3946L10.2808 16.0308L7.95102 6.71176L6.49581 7.07556ZM14.4039 20.75H23V19.25H14.4039V20.75ZM4.79806 4.25H4.25V5.75H4.79806V4.25ZM8.82556 16.3946C9.0485 17.2863 9.23055 18.0197 9.44864 18.5921C9.67392 19.1835 9.96505 19.6816 10.4519 20.0617L11.375 18.8794C11.1836 18.73 11.022 18.5086 10.8504 18.0581C10.6716 17.5888 10.5126 16.9579 10.2808 16.0308L8.82556 16.3946ZM14.4039 19.25C13.4482 19.25 12.7976 19.2488 12.2989 19.1891C11.8203 19.1319 11.5663 19.0288 11.375 18.8794L10.4519 20.0617C10.9387 20.4418 11.4925 20.6034 12.1208 20.6785C12.7291 20.7512 13.4847 20.75 14.4039 20.75V19.25ZM7.95102 6.71176C7.84177 6.27475 7.74498 5.88245 7.62611 5.57043C7.50006 5.23956 7.32212 4.9213 7.00485 4.67359L6.08174 5.8559C6.10354 5.87293 6.15199 5.91441 6.22439 6.10444C6.30397 6.31333 6.3777 6.60312 6.49581 7.07556L7.95102 6.71176ZM4.79806 5.75C5.28504 5.75 5.58406 5.75125 5.80601 5.77779C6.00793 5.80193 6.05993 5.83887 6.08174 5.8559L7.00485 4.67359C6.68759 4.42587 6.33568 4.33044 5.98411 4.2884C5.65258 4.24875 5.24852 4.25 4.79806 4.25V5.75ZM8.00011 9.49998H23.8991V7.99998H8.00011V9.49998ZM24.3842 10.1213L23.8443 12.2808L25.2995 12.6446L25.8394 10.4851L24.3842 10.1213ZM19.7212 15.5H9.87511V17H19.7212V15.5ZM23.8443 12.2808C23.6125 13.2079 23.4535 13.8388 23.2747 14.3081C23.1031 14.7586 22.9415 14.9799 22.7501 15.1293L23.6733 16.3117C24.1601 15.9316 24.4512 15.4334 24.6765 14.8421C24.8946 14.2696 25.0766 13.5363 25.2995 12.6446L23.8443 12.2808ZM19.7212 17C20.6404 17 21.396 17.0012 22.0043 16.9285C22.6326 16.8534 23.1865 16.6917 23.6733 16.3117L22.7501 15.1293C22.5588 15.2787 22.3048 15.3819 21.8262 15.4391C21.3275 15.4987 20.6769 15.5 19.7212 15.5V17ZM23.8991 9.49998C24.2913 9.49998 24.5029 9.50185 24.6443 9.5223C24.7662 9.53994 24.6788 9.55148 24.6011 9.45191L25.7834 8.52879C25.518 8.18886 25.1525 8.08021 24.8591 8.03776C24.585 7.99812 24.244 7.99998 23.8991 7.99998V9.49998ZM25.8394 10.4851C25.9231 10.1505 26.0076 9.82009 26.0356 9.54464C26.0656 9.24962 26.0488 8.86873 25.7834 8.52879L24.6011 9.45191C24.5234 9.35234 24.5557 9.27038 24.5433 9.39293C24.5288 9.53504 24.4793 9.74084 24.3842 10.1213L25.8394 10.4851ZM13.5001 23.75C13.5001 24.0261 13.2763 24.25 13.0001 24.25V25.75C14.1047 25.75 15.0001 24.8546 15.0001 23.75H13.5001ZM13.0001 24.25C12.724 24.25 12.5001 24.0261 12.5001 23.75H11.0001C11.0001 24.8546 11.8955 25.75 13.0001 25.75V24.25ZM12.5001 23.75C12.5001 23.4738 12.724 23.25 13.0001 23.25V21.75C11.8955 21.75 11.0001 22.6454 11.0001 23.75H12.5001ZM13.0001 23.25C13.2763 23.25 13.5001 23.4738 13.5001 23.75H15.0001C15.0001 22.6454 14.1047 21.75 13.0001 21.75V23.25ZM19.7501 23.75C19.7501 24.0261 19.5263 24.25 19.2501 24.25V25.75C20.3547 25.75 21.2501 24.8546 21.2501 23.75H19.7501ZM19.2501 24.25C18.974 24.25 18.7501 24.0261 18.7501 23.75H17.2501C17.2501 24.8546 18.1455 25.75 19.2501 25.75V24.25ZM18.7501 23.75C18.7501 23.4738 18.974 23.25 19.2501 23.25V21.75C18.1455 21.75 17.2501 22.6454 17.2501 23.75H18.7501ZM19.2501 23.25C19.5263 23.25 19.7501 23.4738 19.7501 23.75H21.2501C21.2501 22.6454 20.3547 21.75 19.2501 21.75V23.25Z" fill="#2F82FF"/>
</svg>
