<svg width="15" height="25" viewBox="0 0 15 25" fill="none" xmlns="http://www.w3.org/2000/svg">
<path opacity="0.4" d="M12.75 0.73584H2.25C1.65326 0.73584 1.08097 0.972893 0.65901 1.39485C0.237053 1.81681 0 2.3891 0 2.98584L0 22.4858C0 23.0826 0.237053 23.6549 0.65901 24.0768C1.08097 24.4988 1.65326 24.7358 2.25 24.7358H12.75C13.3467 24.7358 13.919 24.4988 14.341 24.0768C14.7629 23.6549 15 23.0826 15 22.4858V2.98584C15 2.3891 14.7629 1.81681 14.341 1.39485C13.919 0.972893 13.3467 0.73584 12.75 0.73584V0.73584ZM7.5 23.2358C7.20333 23.2358 6.91332 23.1479 6.66665 22.983C6.41997 22.8182 6.22771 22.584 6.11418 22.3099C6.00065 22.0358 5.97094 21.7342 6.02882 21.4432C6.0867 21.1522 6.22956 20.885 6.43934 20.6752C6.64912 20.4654 6.91639 20.3225 7.20736 20.2647C7.49834 20.2068 7.79994 20.2365 8.07403 20.35C8.34811 20.4636 8.58238 20.6558 8.7472 20.9025C8.91203 21.1492 9 21.4392 9 21.7358C9 22.1337 8.84196 22.5152 8.56066 22.7965C8.27936 23.0778 7.89782 23.2358 7.5 23.2358ZM12.75 18.1733C12.75 18.3225 12.6907 18.4656 12.5852 18.5711C12.4798 18.6766 12.3367 18.7358 12.1875 18.7358H2.8125C2.66332 18.7358 2.52024 18.6766 2.41475 18.5711C2.30926 18.4656 2.25 18.3225 2.25 18.1733V3.54834C2.25 3.39916 2.30926 3.25608 2.41475 3.15059C2.52024 3.0451 2.66332 2.98584 2.8125 2.98584H12.1875C12.3367 2.98584 12.4798 3.0451 12.5852 3.15059C12.6907 3.25608 12.75 3.39916 12.75 3.54834V18.1733Z" fill="#2F82FF"/>
<path d="M12.75 18.1733C12.75 18.3225 12.6907 18.4656 12.5852 18.5711C12.4798 18.6766 12.3367 18.7358 12.1875 18.7358H2.8125C2.66332 18.7358 2.52024 18.6766 2.41475 18.5711C2.30926 18.4656 2.25 18.3225 2.25 18.1733V3.54834C2.25 3.39916 2.30926 3.25608 2.41475 3.15059C2.52024 3.0451 2.66332 2.98584 2.8125 2.98584H12.1875C12.3367 2.98584 12.4798 3.0451 12.5852 3.15059C12.6907 3.25608 12.75 3.39916 12.75 3.54834V18.1733Z" fill="#2F82FF"/>
</svg>
