<svg width="21" height="25" viewBox="0 0 21 25" fill="none" xmlns="http://www.w3.org/2000/svg">
<circle cx="10.5089" cy="6.991" r="5.57437" stroke="#BCC8E7" stroke-width="1.5" stroke-linecap="round" stroke-linejoin="round"/>
<path fill-rule="evenodd" clip-rule="evenodd" d="M1.66677 20.3182C1.66527 19.9264 1.75291 19.5393 1.92306 19.1863C2.457 18.1184 3.96272 17.5524 5.21215 17.2961C6.11324 17.1038 7.02677 16.9754 7.94594 16.9117C9.64773 16.7622 11.3593 16.7622 13.0611 16.9117C13.9802 16.9761 14.8937 17.1045 15.7949 17.2961C17.0443 17.5524 18.5501 18.065 19.084 19.1863C19.4262 19.9059 19.4262 20.7413 19.084 21.4609C18.5501 22.5822 17.0443 23.0947 15.7949 23.3404C14.8949 23.5406 13.981 23.6727 13.0611 23.7355C11.676 23.8529 10.2844 23.8743 8.89636 23.7995C8.576 23.7995 8.26631 23.7995 7.94594 23.7355C7.02949 23.6735 6.11912 23.5414 5.22283 23.3404C3.96272 23.0947 2.46768 22.5822 1.92306 21.4609C1.75378 21.1038 1.66623 20.7134 1.66677 20.3182Z" stroke="#BCC8E7" stroke-width="1.5" stroke-linecap="round" stroke-linejoin="round"/>
</svg>
