<svg width="25" height="25" viewBox="0 0 25 25" fill="none" xmlns="http://www.w3.org/2000/svg">
<g clip-path="url(#clip0_1160_19183)">
<path d="M0.5 8.61083V7.86083C0.5 7.2395 1.00367 6.73583 1.625 6.73583H19.5298L18.1017 5.43608C17.6416 5.00066 17.6315 4.27142 18.0795 3.82348L18.5876 3.31536C19.027 2.876 19.7392 2.876 20.1786 3.31536L24.0606 7.17519C24.6464 7.76098 24.6464 8.71072 24.0606 9.29652L20.1786 13.1563C19.7392 13.5957 19.0269 13.5957 18.5876 13.1563L18.0795 12.6482C17.6315 12.2003 17.6416 11.471 18.1017 11.0356L19.5298 9.73583H1.625C1.00367 9.73583 0.5 9.23216 0.5 8.61083ZM23.375 15.7358H5.47016L6.8983 14.4361C7.35837 14.0007 7.36845 13.2714 6.92052 12.8235L6.41239 12.3154C5.97303 11.876 5.26077 11.876 4.82141 12.3154L0.939359 16.1752C0.353563 16.761 0.353563 17.7107 0.939359 18.2965L4.82141 22.1563C5.26077 22.5957 5.97308 22.5957 6.41239 22.1563L6.92052 21.6482C7.36845 21.2003 7.35837 20.471 6.8983 20.0356L5.47016 18.7358H23.375C23.9963 18.7358 24.5 18.2322 24.5 17.6108V16.8608C24.5 16.2395 23.9963 15.7358 23.375 15.7358Z" fill="#2F82FF"/>
</g>
<defs>
<clipPath id="clip0_1160_19183">
<rect width="24" height="24" fill="white" transform="translate(0.5 0.73584)"/>
</clipPath>
</defs>
</svg>
