<svg width="32" height="32" viewBox="0 0 32 32" fill="none" xmlns="http://www.w3.org/2000/svg">
<rect width="32" height="32" rx="10" fill="#FD8BF3"/>
<path d="M10.4823 10.5958L10.9673 10.4745V10.4745L10.4823 10.5958ZM12.0354 16.8085L11.5504 16.9298L12.0354 16.8085ZM21 19.8334C21.2761 19.8334 21.5 19.6095 21.5 19.3334C21.5 19.0572 21.2761 18.8334 21 18.8334V19.8334ZM8.5 8.83337C8.22386 8.83337 8 9.05723 8 9.33337C8 9.60952 8.22386 9.83337 8.5 9.83337V8.83337ZM12.9423 18.9804L12.6346 19.3745L12.6346 19.3745L12.9423 18.9804ZM10.0289 9.50987L10.3366 9.11577L10.3366 9.11577L10.0289 9.50987ZM11.0001 11.3334C10.7239 11.3334 10.5001 11.5572 10.5001 11.8334C10.5001 12.1095 10.7239 12.3334 11.0001 12.3334V11.3334ZM22.4079 12.8688L22.8929 12.9901L22.4079 12.8688ZM22.048 14.3085L22.533 14.4298V14.4298L22.048 14.3085ZM12.2501 16.3334C11.9739 16.3334 11.7501 16.5572 11.7501 16.8334C11.7501 17.1095 11.9739 17.3334 12.2501 17.3334V16.3334ZM21.1411 16.4804L20.8334 16.0863H20.8334L21.1411 16.4804ZM9.99721 10.7171L11.5504 16.9298L12.5205 16.6872L10.9673 10.4745L9.99721 10.7171ZM15.2693 19.8334H21V18.8334H15.2693V19.8334ZM8.86537 8.83337H8.5V9.83337H8.86537V8.83337ZM11.5504 16.9298C11.699 17.5243 11.8204 18.0131 11.9658 18.3948C12.1159 18.789 12.31 19.1211 12.6346 19.3745L13.25 18.5863C13.1224 18.4867 13.0147 18.3391 12.9002 18.0388C12.781 17.7259 12.675 17.3053 12.5205 16.6872L11.5504 16.9298ZM15.2693 18.8334C14.6321 18.8334 14.1984 18.8325 13.8659 18.7928C13.5468 18.7546 13.3775 18.6859 13.25 18.5863L12.6346 19.3745C12.9591 19.6279 13.3283 19.7356 13.7472 19.7857C14.1527 19.8342 14.6565 19.8334 15.2693 19.8334V18.8334ZM10.9673 10.4745C10.8945 10.1832 10.83 9.92168 10.7507 9.71366C10.6667 9.49308 10.5481 9.28091 10.3366 9.11577L9.72116 9.90397C9.7357 9.91532 9.76799 9.94298 9.81626 10.0697C9.86931 10.2089 9.91847 10.4021 9.99721 10.7171L10.9673 10.4745ZM8.86537 9.83337C9.19003 9.83337 9.38937 9.83421 9.53734 9.8519C9.67196 9.868 9.70662 9.89262 9.72116 9.90397L10.3366 9.11577C10.1251 8.95062 9.89045 8.887 9.65608 8.85897C9.43505 8.83254 9.16568 8.83337 8.86537 8.83337V9.83337ZM11.0001 12.3334H21.5994V11.3334H11.0001V12.3334ZM21.9228 12.7475L21.5629 14.1872L22.533 14.4298L22.8929 12.9901L21.9228 12.7475ZM18.8142 16.3334H12.2501V17.3334H18.8142V16.3334ZM21.5629 14.1872C21.4084 14.8053 21.3024 15.2259 21.1832 15.5388C21.0687 15.8391 20.961 15.9867 20.8334 16.0863L21.4488 16.8745C21.7734 16.6211 21.9675 16.289 22.1176 15.8948C22.263 15.5131 22.3844 15.0242 22.533 14.4298L21.5629 14.1872ZM18.8142 17.3334C19.4269 17.3334 19.9307 17.3342 20.3362 17.2857C20.7551 17.2356 21.1243 17.1279 21.4488 16.8745L20.8334 16.0863C20.7059 16.1859 20.5366 16.2546 20.2175 16.2928C19.885 16.3325 19.4513 16.3334 18.8142 16.3334V17.3334ZM21.5994 12.3334C21.8608 12.3334 22.0019 12.3346 22.0962 12.3482C22.1775 12.36 22.1192 12.3677 22.0674 12.3013L22.8556 11.6859C22.6787 11.4593 22.435 11.3868 22.2394 11.3585C22.0567 11.3321 21.8293 11.3334 21.5994 11.3334V12.3334ZM22.8929 12.9901C22.9487 12.767 23.0051 12.5468 23.0237 12.3631C23.0437 12.1665 23.0325 11.9125 22.8556 11.6859L22.0674 12.3013C22.0156 12.2349 22.0372 12.1803 22.0289 12.262C22.0192 12.3567 21.9862 12.4939 21.9228 12.7475L22.8929 12.9901ZM14.6667 21.8334C14.6667 22.0175 14.5175 22.1667 14.3334 22.1667V23.1667C15.0698 23.1667 15.6667 22.5697 15.6667 21.8334H14.6667ZM14.3334 22.1667C14.1493 22.1667 14.0001 22.0175 14.0001 21.8334H13.0001C13.0001 22.5697 13.597 23.1667 14.3334 23.1667V22.1667ZM14.0001 21.8334C14.0001 21.6493 14.1493 21.5 14.3334 21.5V20.5C13.597 20.5 13.0001 21.097 13.0001 21.8334H14.0001ZM14.3334 21.5C14.5175 21.5 14.6667 21.6493 14.6667 21.8334H15.6667C15.6667 21.097 15.0698 20.5 14.3334 20.5V21.5ZM18.8334 21.8334C18.8334 22.0175 18.6842 22.1667 18.5001 22.1667V23.1667C19.2365 23.1667 19.8334 22.5697 19.8334 21.8334H18.8334ZM18.5001 22.1667C18.316 22.1667 18.1667 22.0175 18.1667 21.8334H17.1667C17.1667 22.5697 17.7637 23.1667 18.5001 23.1667V22.1667ZM18.1667 21.8334C18.1667 21.6493 18.316 21.5 18.5001 21.5V20.5C17.7637 20.5 17.1667 21.097 17.1667 21.8334H18.1667ZM18.5001 21.5C18.6842 21.5 18.8334 21.6493 18.8334 21.8334H19.8334C19.8334 21.097 19.2365 20.5 18.5001 20.5V21.5Z" fill="white"/>
</svg>
