<svg width="24" height="25" viewBox="0 0 24 25" fill="none" xmlns="http://www.w3.org/2000/svg">
<path d="M8.65732 22.7356V19.1683C8.65732 18.2576 9.40095 17.5194 10.3183 17.5194H13.6715C14.112 17.5194 14.5344 17.6931 14.8459 18.0023C15.1574 18.3116 15.3324 18.731 15.3324 19.1683V22.7356C15.3296 23.1142 15.4792 23.4782 15.7478 23.7469C16.0165 24.0156 16.3821 24.1667 16.7635 24.1667H19.0512C20.1197 24.1694 21.1453 23.75 21.9018 23.001C22.6583 22.2519 23.0834 21.2348 23.0834 20.1742V10.0114C23.0834 9.15458 22.7008 8.34186 22.0388 7.79215L14.2564 1.62189C12.9027 0.540029 10.963 0.57496 9.6497 1.70485L2.04493 7.79215C1.35161 8.32565 0.937226 9.14078 0.916748 10.0114V20.1638C0.916748 22.3745 2.72203 24.1667 4.94895 24.1667H7.18442C7.97651 24.1667 8.62024 23.5323 8.62598 22.746L8.65732 22.7356Z" fill="#2F82FF"/>
</svg>
