<svg width="24" height="25" viewBox="0 0 24 25" fill="none" xmlns="http://www.w3.org/2000/svg">
<path d="M24 6.33566V7.13566C24 7.24174 23.9579 7.34349 23.8828 7.4185C23.8078 7.49352 23.7061 7.53566 23.6 7.53566H22.4V8.13566C22.4 8.46701 22.1313 8.73566 21.8 8.73566H2.2C1.86865 8.73566 1.6 8.46701 1.6 8.13566V7.53566H0.4C0.293913 7.53566 0.192172 7.49352 0.117157 7.4185C0.0421427 7.34349 0 7.24174 0 7.13566V6.33566C5.72072e-07 6.25652 0.0234739 6.17917 0.06745 6.11338C0.111426 6.04759 0.173929 5.99632 0.24705 5.96606L11.847 1.56606C11.945 1.52551 12.055 1.52551 12.1529 1.56606L23.753 5.96606C23.8261 5.99632 23.8886 6.04759 23.9326 6.11338C23.9765 6.17917 24 6.25652 24 6.33566ZM22.8 21.5357H1.2C0.53725 21.5357 0 22.0729 0 22.7357V23.5357C0 23.6417 0.0421427 23.7435 0.117157 23.8185C0.192172 23.8935 0.293913 23.9357 0.4 23.9357H23.6C23.7061 23.9357 23.8078 23.8935 23.8828 23.8185C23.9579 23.7435 24 23.6417 24 23.5357V22.7357C24 22.0729 23.4627 21.5357 22.8 21.5357ZM4 9.53566V19.1357H2.2C1.86865 19.1357 1.6 19.4043 1.6 19.7357V20.7357H22.4V19.7357C22.4 19.4043 22.1313 19.1357 21.8 19.1357H20V9.53566H16.8V19.1357H13.6V9.53566H10.4V19.1357H7.2V9.53566H4Z" fill="#2F82FF"/>
</svg>
