<svg width="32" height="32" viewBox="0 0 32 32" fill="none" xmlns="http://www.w3.org/2000/svg">
<rect width="32" height="32" rx="10" fill="#B486FF"/>
<path d="M16.8334 10.1667H11.8334C11.0568 10.1667 10.6686 10.1667 10.3623 10.2936C9.9539 10.4627 9.62944 10.7872 9.46028 11.1956C9.33341 11.5019 9.33341 11.8901 9.33341 12.6667M22.6667 15.1667V18.5C22.6667 20.0714 22.6667 20.8571 22.1786 21.3452C21.6904 21.8334 20.9048 21.8334 19.3334 21.8334H11.8334C11.0568 21.8334 10.6686 21.8334 10.3623 21.7065C9.9539 21.5373 9.62944 21.2129 9.46028 20.8045C9.33341 20.4982 9.33341 20.1099 9.33341 19.3334M11.0001 15.7917V16.2084M21.8334 8.50004V10.1667M21.8334 10.1667V11.8334M21.8334 10.1667H23.5001M21.8334 10.1667H20.1667M9.33341 17.6667H11.0001C11.7858 17.6667 12.1786 17.6667 12.4227 17.4226C12.6667 17.1786 12.6667 16.7857 12.6667 16C12.6667 15.2144 12.6667 14.8215 12.4227 14.5775C12.1786 14.3334 11.7858 14.3334 11.0001 14.3334H9.33341C8.54774 14.3334 8.1549 14.3334 7.91083 14.5775C7.66675 14.8215 7.66675 15.2144 7.66675 16C7.66675 16.7857 7.66675 17.1786 7.91083 17.4226C8.1549 17.6667 8.54774 17.6667 9.33341 17.6667ZM25.1667 10.1667C25.1667 12.0077 23.6744 13.5 21.8334 13.5C19.9925 13.5 18.5001 12.0077 18.5001 10.1667C18.5001 8.32576 19.9925 6.83337 21.8334 6.83337C23.6744 6.83337 25.1667 8.32576 25.1667 10.1667Z" stroke="white" stroke-linecap="round" stroke-linejoin="round"/>
</svg>
