<svg width="24" height="23" viewBox="0 0 24 23" fill="none" xmlns="http://www.w3.org/2000/svg">
<path fill-rule="evenodd" clip-rule="evenodd" d="M12.8332 1.5143L15.5352 6.9498C15.6706 7.22397 15.9319 7.4153 16.2352 7.45964L22.2844 8.33347C22.5294 8.36614 22.7499 8.49447 22.9004 8.69047C23.1827 9.05797 23.1396 9.5783 22.8012 9.89447L18.4169 14.1341C18.1941 14.3441 18.0949 14.6521 18.1532 14.952L19.2032 20.9346C19.2767 21.4305 18.9384 21.8948 18.4426 21.9753C18.2372 22.0068 18.0272 21.9741 17.8406 21.882L12.4529 19.0575C12.1822 18.9105 11.8579 18.9105 11.5872 19.0575L6.1599 21.8971C5.70607 22.1281 5.15073 21.9566 4.9034 21.5121C4.8089 21.3325 4.77623 21.1283 4.8089 20.9288L5.8589 14.9461C5.9114 14.6475 5.81223 14.3406 5.59523 14.1295L1.18757 9.89097C0.828232 9.53397 0.825898 8.95297 1.18407 8.59364C1.18523 8.59247 1.1864 8.59014 1.18757 8.58897C1.33573 8.4548 1.51773 8.36497 1.7149 8.32997L7.76523 7.45614C8.0674 7.4083 8.32757 7.2193 8.46523 6.94514L11.1649 1.5143C11.2734 1.2938 11.4659 1.12464 11.6992 1.04764C11.9337 0.969469 12.1904 0.988135 12.4109 1.09897C12.5917 1.1888 12.7399 1.33464 12.8332 1.5143Z" stroke="#BCC8E7" stroke-width="1.5" stroke-linecap="round" stroke-linejoin="round"/>
</svg>
