<svg width="24" height="25" viewBox="0 0 24 25" fill="none" xmlns="http://www.w3.org/2000/svg">
<path d="M21.3333 3.43286V3.40267L21.3168 3.41919C20.2029 2.58293 18.8335 2.06934 17.3333 2.06934C15.8332 2.06934 14.4638 2.58293 13.3499 3.41919L13.3333 3.40267V3.43286C11.723 4.64982 10.6667 6.56201 10.6667 8.736C10.669 9.21705 10.7234 9.69643 10.8289 10.1658C9.33553 10.3883 7.00415 11.1348 5.33333 13.6507V10.0693C5.33218 9.00883 4.91038 7.99208 4.16048 7.24219C3.41059 6.4923 2.39384 6.0705 1.33333 6.06934C0.979711 6.06934 0.640573 6.20981 0.390524 6.45986C0.140476 6.70991 0 7.04905 0 7.40267C0 7.75629 0.140476 8.09543 0.390524 8.34548C0.640573 8.59553 0.979711 8.736 1.33333 8.736C1.68681 8.73646 2.02569 8.87709 2.27563 9.12704C2.52558 9.37699 2.66621 9.71586 2.66667 10.0693V20.736C2.66736 21.443 2.94854 22.1209 3.44849 22.6209C3.94843 23.1208 4.6263 23.402 5.33333 23.4027H12.6667C12.7542 23.4027 12.8409 23.3855 12.9218 23.352C13.0028 23.3185 13.0763 23.2694 13.1382 23.2075C13.2001 23.1456 13.2492 23.0721 13.2827 22.9912C13.3162 22.9103 13.3334 22.8236 13.3333 22.736V22.0693C13.3333 21.7157 13.1928 21.3766 12.9428 21.1265C12.6927 20.8765 12.3536 20.736 12 20.736H10.6667L16 16.736V22.736C16 22.8236 16.0172 22.9103 16.0506 22.9912C16.0841 23.0721 16.1332 23.1456 16.1952 23.2075C16.2571 23.2694 16.3306 23.3185 16.4115 23.352C16.4924 23.3855 16.5791 23.4027 16.6667 23.4027H18C18.0876 23.4027 18.1743 23.3855 18.2552 23.352C18.3361 23.3185 18.4096 23.2694 18.4715 23.2075C18.5334 23.1456 18.5825 23.0721 18.616 22.9912C18.6495 22.9103 18.6667 22.8236 18.6667 22.736V15.2683C20.1722 14.9607 21.5253 14.1426 22.4971 12.9523C23.4689 11.762 23.9998 10.2726 24 8.736C24 6.56201 22.9437 4.64982 21.3333 3.43286ZM17.3333 3.40267C18.421 3.40321 19.4821 3.73873 20.3724 4.36361L18.6667 6.06934H16L14.2943 4.36361C15.1845 3.73873 16.2457 3.40321 17.3333 3.40267ZM19.6667 8.736C19.6667 8.86786 19.6276 8.99675 19.5543 9.10639C19.4811 9.21602 19.3769 9.30147 19.2551 9.35192C19.1333 9.40238 18.9993 9.41559 18.8699 9.38986C18.7406 9.36414 18.6218 9.30064 18.5286 9.20741C18.4354 9.11417 18.3719 8.99539 18.3461 8.86607C18.3204 8.73674 18.3336 8.6027 18.3841 8.48088C18.4345 8.35906 18.52 8.25495 18.6296 8.18169C18.7393 8.10844 18.8681 8.06934 19 8.06934C19.0876 8.06929 19.1743 8.0865 19.2552 8.11998C19.3361 8.15347 19.4096 8.20257 19.4715 8.26449C19.5334 8.3264 19.5825 8.39992 19.616 8.48082C19.6495 8.56173 19.6667 8.64844 19.6667 8.736ZM16.3333 8.736C16.3333 8.86786 16.2942 8.99675 16.221 9.10639C16.1477 9.21602 16.0436 9.30147 15.9218 9.35192C15.8 9.40238 15.6659 9.41559 15.5366 9.38986C15.4073 9.36414 15.2885 9.30064 15.1953 9.20741C15.102 9.11417 15.0385 8.99539 15.0128 8.86607C14.9871 8.73674 15.0003 8.6027 15.0507 8.48088C15.1012 8.35906 15.1867 8.25495 15.2963 8.18169C15.4059 8.10844 15.5348 8.06934 15.6667 8.06934C15.7542 8.06929 15.8409 8.0865 15.9218 8.11998C16.0028 8.15347 16.0763 8.20257 16.1382 8.26449C16.2001 8.3264 16.2492 8.39992 16.2827 8.48082C16.3162 8.56173 16.3334 8.64844 16.3333 8.736ZM17.3333 14.0693C15.9193 14.0677 14.5637 13.5053 13.5639 12.5055C12.564 11.5056 12.0016 10.15 12 8.736C12 7.39559 12.5139 6.18376 13.3333 5.24585V8.736C13.3333 9.79687 13.7548 10.8143 14.5049 11.5644C15.2551 12.3146 16.2725 12.736 17.3333 12.736C18.3942 12.736 19.4116 12.3146 20.1618 11.5644C20.9119 10.8143 21.3333 9.79687 21.3333 8.736V5.24585C22.1528 6.18376 22.6667 7.39559 22.6667 8.736C22.6651 10.15 22.1027 11.5056 21.1028 12.5055C20.103 13.5053 18.7473 14.0677 17.3333 14.0693ZM5.45605 4.93474L7.11068 5.62476L7.80078 7.27938C7.81913 7.3164 7.84746 7.34756 7.88258 7.36935C7.91769 7.39113 7.95819 7.40267 7.99951 7.40267C8.04083 7.40267 8.08133 7.39113 8.11645 7.36935C8.15156 7.34756 8.17989 7.3164 8.19824 7.27938L8.88818 5.62476L10.543 4.93474C10.5799 4.91625 10.6109 4.88787 10.6325 4.85277C10.6542 4.81766 10.6657 4.77722 10.6657 4.73596C10.6657 4.69471 10.6542 4.65427 10.6325 4.61916C10.6109 4.58406 10.5799 4.55568 10.543 4.53719L8.88818 3.84725L8.19824 2.19255C8.17987 2.15554 8.15154 2.12441 8.11642 2.10264C8.08131 2.08087 8.04082 2.06934 7.99951 2.06934C7.9582 2.06934 7.91771 2.08087 7.8826 2.10264C7.84749 2.12441 7.81915 2.15554 7.80078 2.19255L7.11068 3.84725L5.45605 4.53719C5.41917 4.55568 5.38816 4.58406 5.36648 4.61916C5.34481 4.65426 5.33333 4.69471 5.33333 4.73596C5.33333 4.77722 5.34481 4.81766 5.36648 4.85276C5.38816 4.88787 5.41917 4.91625 5.45605 4.93473V4.93474Z" fill="#2F82FF"/>
</svg>
