<svg width="31" height="30" viewBox="0 0 31 30" fill="none" xmlns="http://www.w3.org/2000/svg">
<path d="M3.18306 21.0669L3.71339 20.5366L3.71339 20.5366L3.18306 21.0669ZM27.8169 21.0669L27.2866 20.5366L27.2866 20.5366L27.8169 21.0669ZM25.625 8.75C25.625 8.33579 25.2892 8 24.875 8C24.4608 8 24.125 8.33579 24.125 8.75H25.625ZM28 12.625C28.4142 12.625 28.75 12.2892 28.75 11.875C28.75 11.4608 28.4142 11.125 28 11.125V12.625ZM24.125 21.25C24.125 21.6642 24.4608 22 24.875 22C25.2892 22 25.625 21.6642 25.625 21.25H24.125ZM28 18.875C28.4142 18.875 28.75 18.5392 28.75 18.125C28.75 17.7108 28.4142 17.375 28 17.375V18.875ZM6.875 8.75C6.875 8.33579 6.53921 8 6.125 8C5.71079 8 5.375 8.33579 5.375 8.75H6.875ZM3 11.125C2.58579 11.125 2.25 11.4608 2.25 11.875C2.25 12.2892 2.58579 12.625 3 12.625V11.125ZM5.375 21.25C5.375 21.6642 5.71079 22 6.125 22C6.53921 22 6.875 21.6642 6.875 21.25H5.375ZM3 17.375C2.58579 17.375 2.25 17.7108 2.25 18.125C2.25 18.5392 2.58579 18.875 3 18.875V17.375ZM15.5 5.75C15.9142 5.75 16.25 5.41422 16.25 5C16.25 4.58579 15.9142 4.25 15.5 4.25L15.5 5.75ZM5.49996 5L4.96963 4.46967C4.75513 4.68417 4.69097 5.00676 4.80705 5.28701C4.92314 5.56727 5.19661 5.75 5.49996 5.75L5.49996 5ZM8.53029 3.03033C8.82318 2.73744 8.82318 2.26256 8.53029 1.96967C8.2374 1.67678 7.76252 1.67678 7.46963 1.96967L8.53029 3.03033ZM15.5 24.25C15.0858 24.25 14.75 24.5858 14.75 25C14.75 25.4142 15.0858 25.75 15.5 25.75L15.5 24.25ZM25.5 25L26.0303 25.5303C26.2448 25.3158 26.309 24.9933 26.1929 24.713C26.0768 24.4327 25.8033 24.25 25.5 24.25V25ZM22.4697 26.9697C22.1768 27.2626 22.1768 27.7374 22.4697 28.0303C22.7626 28.3232 23.2374 28.3232 23.5303 28.0303L22.4697 26.9697ZM4.25 9.5H26.75V8H4.25V9.5ZM27.25 10V20H28.75V10H27.25ZM26.75 20.5H4.25V22H26.75V20.5ZM3.75 20V10H2.25V20H3.75ZM4.25 20.5C4.0999 20.5 3.9813 20.5 3.87936 20.4974C3.77704 20.4948 3.71012 20.49 3.66414 20.4838C3.57711 20.4721 3.64234 20.4656 3.71339 20.5366L2.65273 21.5973C2.90683 21.8514 3.21091 21.9364 3.46427 21.9704C3.69606 22.0016 3.97657 22 4.25 22V20.5ZM2.25 20C2.25 20.2734 2.24841 20.5539 2.27957 20.7857C2.31363 21.0391 2.39862 21.3432 2.65273 21.5973L3.71339 20.5366C3.78444 20.6077 3.7779 20.6729 3.76619 20.5859C3.76001 20.5399 3.7552 20.473 3.75262 20.3706C3.75005 20.2687 3.75 20.1501 3.75 20H2.25ZM27.25 20C27.25 20.1501 27.25 20.2687 27.2474 20.3706C27.2448 20.473 27.24 20.5399 27.2338 20.5859C27.2221 20.6729 27.2156 20.6077 27.2866 20.5366L28.3473 21.5973C28.6014 21.3432 28.6864 21.0391 28.7204 20.7857C28.7516 20.5539 28.75 20.2734 28.75 20H27.25ZM26.75 22C27.0234 22 27.3039 22.0016 27.5357 21.9704C27.7891 21.9364 28.0932 21.8514 28.3473 21.5973L27.2866 20.5366C27.3577 20.4656 27.4229 20.4721 27.3359 20.4838C27.2899 20.49 27.223 20.4948 27.1206 20.4974C27.0187 20.5 26.9001 20.5 26.75 20.5V22ZM26.75 9.5C26.9001 9.5 27.0187 9.50005 27.1206 9.50262C27.223 9.5052 27.2899 9.51001 27.3359 9.51619C27.4229 9.5279 27.3577 9.53444 27.2866 9.46339L28.3473 8.40273C28.0932 8.14862 27.7891 8.06363 27.5357 8.02957C27.3039 7.99841 27.0234 8 26.75 8V9.5ZM28.75 10C28.75 9.72657 28.7516 9.44606 28.7204 9.21427C28.6864 8.96091 28.6014 8.65684 28.3473 8.40273L27.2866 9.46339C27.2156 9.39234 27.2221 9.32711 27.2338 9.41414C27.24 9.46012 27.2448 9.52704 27.2474 9.62936C27.25 9.7313 27.25 9.8499 27.25 10H28.75ZM4.25 8C3.97657 8 3.69606 7.99841 3.46427 8.02957C3.21091 8.06363 2.90683 8.14862 2.65273 8.40273L3.71339 9.46339C3.64234 9.53444 3.57711 9.5279 3.66414 9.51619C3.71012 9.51001 3.77704 9.5052 3.87936 9.50262C3.9813 9.50005 4.0999 9.5 4.25 9.5V8ZM3.75 10C3.75 9.8499 3.75005 9.7313 3.75262 9.62936C3.7552 9.52704 3.76001 9.46012 3.76619 9.41414C3.7779 9.32711 3.78444 9.39234 3.71339 9.46339L2.65273 8.40273C2.39862 8.65683 2.31363 8.96091 2.27957 9.21427C2.24841 9.44606 2.25 9.72657 2.25 10H3.75ZM24.125 8.75V9.79167H25.625V8.75H24.125ZM26.9583 12.625H28V11.125H26.9583V12.625ZM24.125 9.79167C24.125 11.3565 25.3935 12.625 26.9583 12.625V11.125C26.222 11.125 25.625 10.528 25.625 9.79167H24.125ZM25.625 21.25V20.2083H24.125V21.25H25.625ZM26.9583 18.875H28V17.375H26.9583V18.875ZM25.625 20.2083C25.625 19.472 26.222 18.875 26.9583 18.875V17.375C25.3935 17.375 24.125 18.6435 24.125 20.2083H25.625ZM5.375 8.75V9.79167H6.875V8.75H5.375ZM4.04167 11.125H3V12.625H4.04167V11.125ZM5.375 9.79167C5.375 10.528 4.77805 11.125 4.04167 11.125V12.625C5.60647 12.625 6.875 11.3565 6.875 9.79167H5.375ZM6.875 21.25V20.2083H5.375V21.25H6.875ZM4.04167 17.375H3V18.875H4.04167V17.375ZM6.875 20.2083C6.875 18.6435 5.60647 17.375 4.04167 17.375V18.875C4.77805 18.875 5.375 19.472 5.375 20.2083H6.875ZM18.5 15C18.5 16.6569 17.1569 18 15.5 18V19.5C17.9853 19.5 20 17.4853 20 15H18.5ZM15.5 18C13.8431 18 12.5 16.6569 12.5 15H11C11 17.4853 13.0147 19.5 15.5 19.5V18ZM12.5 15C12.5 13.3431 13.8431 12 15.5 12V10.5C13.0147 10.5 11 12.5147 11 15H12.5ZM15.5 12C17.1569 12 18.5 13.3431 18.5 15H20C20 12.5147 17.9853 10.5 15.5 10.5V12ZM15.5 4.25L5.49996 4.25L5.49996 5.75L15.5 5.75L15.5 4.25ZM6.03029 5.53033L8.53029 3.03033L7.46963 1.96967L4.96963 4.46967L6.03029 5.53033ZM15.5 25.75L25.5 25.75V24.25L15.5 24.25L15.5 25.75ZM24.9697 24.4697L22.4697 26.9697L23.5303 28.0303L26.0303 25.5303L24.9697 24.4697Z" fill="#2F82FF"/>
</svg>
