<svg width="18" height="23" viewBox="0 0 18 23" fill="none" xmlns="http://www.w3.org/2000/svg">
<path d="M12.0357 19C12.0357 18.5858 11.6999 18.25 11.2857 18.25C10.8715 18.25 10.5357 18.5858 10.5357 19H12.0357ZM7.46429 19C7.46429 18.5858 7.1285 18.25 6.71429 18.25C6.30007 18.25 5.96429 18.5858 5.96429 19H7.46429ZM9.75 1.33337C9.75 0.91916 9.41421 0.583374 9 0.583374C8.58579 0.583374 8.25 0.91916 8.25 1.33337H9.75ZM16.4026 15.2728L17.092 14.9773L16.4026 15.2728ZM15.6261 13.461L14.9368 13.7564L15.6261 13.461ZM2.37387 13.461L1.68451 13.1656L2.37387 13.461ZM1.59739 15.2728L0.908035 14.9773L1.59739 15.2728ZM2.28675 15.5682L3.06323 13.7564L1.68451 13.1656L0.908035 14.9773L2.28675 15.5682ZM3.75 10.4106V8.66671H2.25V10.4106H3.75ZM14.25 8.66671V10.4106H15.75V8.66671H14.25ZM14.9368 13.7564L15.7132 15.5682L17.092 14.9773L16.3155 13.1656L14.9368 13.7564ZM15.4835 15.9167H2.51654V17.4167H15.4835V15.9167ZM10.5357 19C10.5357 19.8891 9.83365 20.5834 9 20.5834V22.0834C10.6911 22.0834 12.0357 20.6883 12.0357 19H10.5357ZM9 20.5834C8.16635 20.5834 7.46429 19.8891 7.46429 19H5.96429C5.96429 20.6883 7.30892 22.0834 9 22.0834V20.5834ZM9.75 2.66671V1.33337H8.25V2.66671H9.75ZM15.7132 15.5682C15.7839 15.7332 15.6629 15.9167 15.4835 15.9167V17.4167C16.7398 17.4167 17.5869 16.1321 17.092 14.9773L15.7132 15.5682ZM14.25 10.4106C14.25 11.5609 14.4836 12.6992 14.9368 13.7564L16.3155 13.1656C15.9424 12.295 15.75 11.3577 15.75 10.4106H14.25ZM15.75 8.66671C15.75 4.93879 12.7279 1.91671 9 1.91671V3.41671C11.8995 3.41671 14.25 5.76721 14.25 8.66671H15.75ZM3.75 8.66671C3.75 5.76721 6.10051 3.41671 9 3.41671V1.91671C5.27208 1.91671 2.25 4.93879 2.25 8.66671H3.75ZM3.06323 13.7564C3.51635 12.6992 3.75 11.5609 3.75 10.4106H2.25C2.25 11.3577 2.05761 12.295 1.68451 13.1656L3.06323 13.7564ZM0.908035 14.9773C0.413134 16.1321 1.26019 17.4167 2.51654 17.4167V15.9167C2.33706 15.9167 2.21605 15.7332 2.28675 15.5682L0.908035 14.9773Z" fill="#2F82FF"/>
</svg>
