<svg width="24" height="25" viewBox="0 0 24 25" fill="none" xmlns="http://www.w3.org/2000/svg">
<g clip-path="url(#clip0_1160_19170)">
<path d="M18 0.73584L15 2.23584L12 0.73584L9 2.23584L6 0.73584V5.23584H18V0.73584ZM16.2 14.9858H15.4167C14.3742 15.463 13.2192 15.7358 12 15.7358C10.7808 15.7358 9.62578 15.463 8.58328 14.9858H7.8C4.32047 14.9858 1.5 17.8063 1.5 21.2858V22.4858C1.5 23.7285 2.50734 24.7358 3.75 24.7358H20.25C21.4927 24.7358 22.5 23.7285 22.5 22.4858V21.2858C22.5 17.8063 19.6795 14.9858 16.2 14.9858ZM12 13.4858C15.3136 13.4858 18 10.7994 18 7.48584V6.73584H6V7.48584C6 10.7994 8.68641 13.4858 12 13.4858Z" fill="#2F82FF"/>
</g>
<defs>
<clipPath id="clip0_1160_19170">
<rect width="24" height="24" fill="white" transform="translate(0 0.73584)"/>
</clipPath>
</defs>
</svg>
