<svg width="31" height="30" viewBox="0 0 31 30" fill="none" xmlns="http://www.w3.org/2000/svg">
<path d="M16.75 6.25H9.25C8.08515 6.25 7.50272 6.25 7.04329 6.4403C6.43072 6.69404 5.94404 7.18072 5.6903 7.79329C5.5 8.25272 5.5 8.83515 5.5 10M25.5 13.75V18.75C25.5 21.107 25.5 22.2855 24.7678 23.0178C24.0355 23.75 22.857 23.75 20.5 23.75H9.25C8.08515 23.75 7.50272 23.75 7.04329 23.5597C6.43072 23.306 5.94404 22.8193 5.6903 22.2067C5.5 21.7473 5.5 21.1649 5.5 20M8 14.6875V15.3125M24.25 3.75V6.25M24.25 6.25V8.75M24.25 6.25H26.75M24.25 6.25H21.75M5.5 17.5H8C9.17851 17.5 9.76777 17.5 10.1339 17.1339C10.5 16.7678 10.5 16.1785 10.5 15C10.5 13.8215 10.5 13.2322 10.1339 12.8661C9.76777 12.5 9.17851 12.5 8 12.5H5.5C4.32149 12.5 3.73223 12.5 3.36612 12.8661C3 13.2322 3 13.8215 3 15C3 16.1785 3 16.7678 3.36612 17.1339C3.73223 17.5 4.32149 17.5 5.5 17.5ZM29.25 6.25C29.25 9.01142 27.0114 11.25 24.25 11.25C21.4886 11.25 19.25 9.01142 19.25 6.25C19.25 3.48858 21.4886 1.25 24.25 1.25C27.0114 1.25 29.25 3.48858 29.25 6.25Z" stroke="#2F82FF" stroke-width="1.5" stroke-linecap="round" stroke-linejoin="round"/>
</svg>
